<svg width="29" height="28" viewBox="0 0 29 28" fill="none" xmlns="http://www.w3.org/2000/svg">
<path d="M5.42253 21H24.0892C24.7309 21 25.2559 20.475 25.2559 19.8333C25.2559 19.1917 24.7309 18.6667 24.0892 18.6667H5.42253C4.78086 18.6667 4.25586 19.1917 4.25586 19.8333C4.25586 20.475 4.78086 21 5.42253 21ZM5.42253 15.1667H24.0892C24.7309 15.1667 25.2559 14.6417 25.2559 14C25.2559 13.3583 24.7309 12.8333 24.0892 12.8333H5.42253C4.78086 12.8333 4.25586 13.3583 4.25586 14C4.25586 14.6417 4.78086 15.1667 5.42253 15.1667ZM4.25586 8.16667C4.25586 8.80833 4.78086 9.33333 5.42253 9.33333H24.0892C24.7309 9.33333 25.2559 8.80833 25.2559 8.16667C25.2559 7.525 24.7309 7 24.0892 7H5.42253C4.78086 7 4.25586 7.525 4.25586 8.16667Z" fill="white"/>
</svg>
